# xmcd
#
# Track frame offsets:
#	150
#	9427
#	20220
#	33910
#	45155
#	55517
#	65420
#	75297
#	89715
#	100842
#	110602
#	121452
#
# Disc length: 1761 seconds
# Revision: 0
# Processed by: cddbd v1.5.2PL0 Copyright (c) Steve Scherf et al.
# Submitted via: dBpowerAMP V12.0
#
DISCID=8c06df0c
DTITLE=Jimmy Bryant - Country Cabin Jazz
DYEAR=1960
DGENRE=Country Jazz
TTITLE0=Frettin' Fingers
TTITLE1=The Night Rider
TTITLE2=Deep Water
TTITLE3=Jammin' With Jimmy
TTITLE4=Whistle Stop
TTITLE5=Stratosphere Boogie
TTITLE6=Pickin' Peppers
TTITLE7=Pushing The Blues
TTITLE8=Rolling Sky
TTITLE9=Yodeling Guitar
TTITLE10=Bryant's Boogie
TTITLE11=Hometown Polka
EXTD=
EXTT0=
EXTT1=
EXTT2=
EXTT3=
EXTT4=
EXTT5=
EXTT6=
EXTT7=
EXTT8=
EXTT9=
EXTT10=
EXTT11=
PLAYORDER=
